<svg xmlns="http://www.w3.org/2000/svg" xmlns:xlink="http://www.w3.org/1999/xlink" viewBox="0 0 218.89 218.89">
	<defs>
		<style>
			.cls-1{fill:url(#linear-gradient);}.cls-2{fill:url(#linear-gradient-2);}.cls-3{fill:none;}
		</style>
		<linearGradient id="linear-gradient" x1="149.65" y1="43.92" x2="72.46" y2="177.62" gradientUnits="userSpaceOnUse">
			<stop offset="0" stop-color="#32a390" />
			<stop offset="1" stop-color="#0c806c" />
		</linearGradient>
		<linearGradient id="linear-gradient-2" x1="133.39" y1="34.53" x2="85.06" y2="118.24" gradientUnits="userSpaceOnUse">
			<stop offset="0" stop-color="#18c8ab" />
			<stop offset="1" stop-color="#16a188" stop-opacity="0.5" />
		</linearGradient>
	</defs>
	<g id="Layer_2" data-name="Layer 2">
		<g id="Layer_1-2" data-name="Layer 1">
			<path class="cls-1" d="M187.4,137.16l-7-63.62c-2.71-20.75-34.4-33.78-70.93-33.87-36.54.09-68.23,13.12-70.93,33.87q-3.52,31.81-7,63.62c-2.73,20.61,32.09,42.11,78,42.07S190.13,157.77,187.4,137.16Z" />
			<path class="cls-2" d="M180.38,73.54c2.73,20.62-28.95,41.73-70.93,41.69S35.78,94.16,38.52,73.54s34.39-33.78,70.93-33.87C146,39.76,177.67,52.79,180.38,73.54Z" />
			<rect class="cls-3" width="218.89" height="218.89" />
		</g>
	</g>
</svg>
